<?xml version="1.0" standalone="no"?>
<!DOCTYPE svg PUBLIC "-//W3C//DTD SVG 20010904//EN" "http://www.w3.org/TR/2001/REC-SVG-20010904/DTD/svg10.dtd">
<!-- Created using Krita: https://krita.org -->
<svg xmlns="http://www.w3.org/2000/svg" 
    xmlns:xlink="http://www.w3.org/1999/xlink"
    xmlns:krita="http://krita.org/namespaces/svg/krita"
    xmlns:sodipodi="http://sodipodi.sourceforge.net/DTD/sodipodi-0.dtd"
    width="290.88pt"
    height="288pt"
    viewBox="0 0 290.88 288">
<defs/>
<path id="shape0" transform="matrix(0.1 0 0 -0.1 0.0841914214447534 557.45041295339)" fill="#d53734" stroke-opacity="0" stroke="#000000" stroke-width="0" stroke-linecap="square" stroke-linejoin="bevel" d="M1340.16 5524C1315.16 5511 1290.16 5501 1282.16 5504C1275.16 5507 1269.16 5506 1269.16 5501C1269.16 5496 1241.16 5490 1207.16 5488C1125.16 5483 1032.16 5430 973.163 5356C918.163 5287 839.163 5166 839.163 5150C839.163 5143 803.163 5103 759.163 5060C715.163 5017 679.163 4974 679.163 4964C679.163 4952 691.163 4963 712.163 4993C741.163 5035 766.163 5056 776.163 5047C778.163 5045 767.163 5021 752.163 4994C729.163 4953 724.163 4931 721.163 4851C716.163 4737 703.163 4716 596.163 4643C559.163 4618 529.163 4593 529.163 4587C529.163 4582 537.163 4584 547.163 4592C567.163 4610 631.163 4642 636.163 4636C638.163 4635 628.163 4609 614.163 4579C600.163 4549 589.163 4518 590.163 4510C590.163 4500 593.163 4502 599.163 4515C605.163 4529 608.163 4517 608.163 4475C608.163 4432 605.163 4421 599.163 4435C593.163 4448 592.163 4439 596.163 4409C604.163 4341 567.163 4271 499.163 4222C470.163 4202 439.163 4174 430.163 4160C416.163 4138 419.163 4139 457.163 4169C481.163 4187 502.163 4200 505.163 4197C508.163 4194 503.163 4177 493.163 4159C474.163 4121 459.163 4016 455.163 3880C452.163 3779 432.163 3720 373.163 3643C359.163 3625 329.163 3571 306.163 3523C268.163 3444 264.163 3427 263.163 3355L261.163 3275L210.163 3249C159.163 3223 119.163 3187 119.163 3168C119.163 3162 133.163 3170 150.163 3184C180.163 3209 241.163 3240 260.163 3240C277.163 3240 269.163 3212 245.163 3183C216.163 3149 124.163 3096 109.163 3105C103.163 3109 92.1634 3106 84.1634 3100C75.1634 3093 54.1634 3084 36.1634 3081C18.1634 3077 3.16342 3067 1.16342 3058C-2.83658 3039 -3.83658 3039 127.163 3085C167.163 3099 204.163 3110 208.163 3110C212.163 3110 214.163 3084 211.163 3053C209.163 3020 214.163 2969 223.163 2935L239.163 2875L235.163 2952C230.163 3032 247.163 3100 284.163 3156C304.163 3187 309.163 3186 345.163 3148C394.163 3095 400.163 3083 405.163 3040C410.163 3002 407.163 2995 371.163 2962C350.163 2942 310.163 2907 281.163 2885C208.163 2828 171.163 2773 180.163 2735C184.163 2719 187.163 2713 188.163 2722C190.163 2754 241.163 2825 287.163 2860C312.163 2879 354.163 2915 381.163 2939C416.163 2971 433.163 2980 438.163 2972C443.163 2964 449.163 2972 456.163 2995C462.163 3014 463.163 3028 458.163 3024C447.163 3018 426.163 3068 435.163 3081C438.163 3086 436.163 3090 431.163 3090C418.163 3090 348.163 3202 351.163 3219C353.163 3226 374.163 3240 399.163 3250C424.163 3260 463.163 3284 486.163 3304C509.163 3324 530.163 3340 534.163 3340C537.163 3340 531.163 3323 520.163 3303C485.163 3240 448.163 3120 463.163 3120C471.163 3120 482.163 3140 488.163 3164C502.163 3220 519.163 3233 519.163 3188C519.163 3145 501.163 3080 489.163 3080C483.163 3080 479.163 3070 479.163 3059C479.163 3041 481.163 3040 494.163 3050C503.163 3058 509.163 3059 509.163 3052C509.163 3046 505.163 3039 499.163 3035C490.163 3030 489.163 3019 489.163 2938C490.163 2897 468.163 2845 446.163 2837C439.163 2834 415.163 2797 393.163 2754C356.163 2680 354.163 2672 354.163 2581C354.163 2492 352.163 2482 327.163 2450C286.163 2396 278.163 2365 285.163 2293C290.163 2248 297.163 2226 308.163 2222C329.163 2214 368.163 2168 401.163 2111C417.163 2085 429.163 2073 429.163 2083C429.163 2110 394.163 2172 360.163 2204C333.163 2230 329.163 2240 329.163 2290C329.163 2344 364.163 2440 390.163 2456C407.163 2466 451.163 2350 452.163 2292C453.163 2259 456.163 2245 460.163 2257C473.163 2290 469.163 2344 448.163 2400C415.163 2491 415.163 2487 441.163 2495C453.163 2500 480.163 2513 499.163 2526C518.163 2539 537.163 2550 540.163 2550C544.163 2550 549.163 2534 552.163 2514C556.163 2494 568.163 2467 580.163 2454L602.163 2430L582.163 2408C513.163 2333 498.163 2230 542.163 2143C557.163 2114 571.163 2090 573.163 2090C578.163 2090 566.163 2131 549.163 2175C536.163 2210 543.163 2279 564.163 2306C577.163 2323 578.163 2324 579.163 2308C579.163 2284 599.163 2285 599.163 2309C599.163 2319 606.163 2333 614.163 2340C627.163 2351 629.163 2345 631.163 2294C632.163 2261 632.163 2219 631.163 2200C630.163 2173 632.163 2170 638.163 2185C645.163 2203 650.163 2199 677.163 2155C695.163 2127 709.163 2100 709.163 2093C709.163 2086 695.163 2065 679.163 2046C644.163 2007 619.163 1942 619.163 1893C619.163 1859 646.163 1793 656.163 1803C658.163 1806 656.163 1817 650.163 1828C636.163 1854 635.163 1933 649.163 1925C655.163 1921 659.163 1931 659.163 1949C659.163 1965 663.163 1982 669.163 1985C675.163 1989 678.163 1951 675.163 1878C673.163 1787 675.163 1757 689.163 1725L707.163 1685L708.163 1804C708.163 1869 714.163 1941 721.163 1964L732.163 2005L741.163 1960C746.163 1935 749.163 1893 748.163 1865C747.163 1838 747.163 1797 748.163 1775L751.163 1735L761.163 1780C766.163 1805 773.163 1832 776.163 1840C779.163 1848 781.163 1861 780.163 1868C779.163 1874 785.163 1880 793.163 1880C801.163 1880 817.163 1896 829.163 1915C858.163 1962 870.163 1959 852.163 1909C836.163 1861 841.163 1830 858.163 1875C884.163 1944 883.163 1944 903.163 1887C929.163 1811 919.163 1763 875.163 1745C817.163 1721 813.163 1707 838.163 1636C863.163 1564 859.163 1527 824.163 1504C791.163 1482 786.163 1463 806.163 1429L823.163 1400L786.163 1369C766.163 1352 749.163 1332 749.163 1324C749.163 1316 744.163 1310 738.163 1310C722.163 1310 700.163 1279 699.163 1258C699.163 1248 690.163 1236 680.163 1231C662.163 1221 662.163 1218 676.163 1178C686.163 1148 690.163 1101 688.163 1015C686.163 949 689.163 888 693.163 881C698.163 874 701.163 823 700.163 769C699.163 701 702.163 670 710.163 670C718.163 670 720.163 736 717.163 909C714.163 1041 715.163 1153 719.163 1160C723.163 1167 732.163 1163 742.163 1146C755.163 1127 759.163 1097 759.163 1026C759.163 974 763.163 920 769.163 906C774.163 891 775.163 862 770.163 836C766.163 811 765.163 786 769.163 779C788.163 749 795.163 789 793.163 912C790.163 1052 798.163 1090 823.163 1057C832.163 1045 839.163 1043 844.163 1049C847.163 1055 863.163 1060 880.163 1060C903.163 1060 909.163 1055 910.163 1038C911.163 1025 912.163 1011 914.163 1005C915.163 1000 917.163 984 918.163 970C919.163 950 921.163 948 929.163 960C937.163 972 939.163 971 939.163 954C939.163 942 946.163 927 954.163 920C962.163 913 969.163 892 969.163 874C969.163 855 974.163 840 980.163 840C991.163 840 986.163 746 968.163 655C961.163 619 963.163 578 974.163 506C982.163 448 989.163 330 990.163 226C990.163 46 994.163 0 1009.16 0C1017.16 0 1013.16 337 1003.16 476C999.163 527 1000.16 594 1004.16 626C1012.16 683 1012.16 684 1020.16 651C1024.16 632 1033.16 537 1039.16 441C1052.16 246 1054.16 236 1070.16 246C1078.16 251 1080.16 282 1074.16 354C1070.16 410 1067.16 460 1068.16 465C1068.16 471 1071.16 526 1075.16 588C1082.16 696 1087.16 712 1114.16 692C1120.16 688 1130.16 673 1138.16 658C1146.16 642 1158.16 630 1164.16 630C1171.16 630 1182.16 624 1188.16 616C1197.16 605 1196.16 599 1180.16 588C1150.16 567 1148.16 526 1177.16 522C1192.16 520 1199.16 512 1199.16 496C1199.16 484 1204.16 469 1211.16 462C1218.16 455 1224.16 400 1226.16 316C1228.16 241 1234.16 159 1240.16 133C1246.16 107 1254.16 65 1257.16 40C1271.16 -46 1276.16 32 1267.16 184C1260.16 294 1261.16 336 1270.16 344C1278.16 352 1280.16 349 1274.16 333C1266.16 304 1284.16 302 1299.16 330C1305.16 341 1318.16 350 1327.16 350C1341.16 350 1344.16 342 1344.16 311C1344.16 290 1337.16 265 1330.16 256C1318.16 242 1319.16 237 1333.16 222C1342.16 212 1349.16 192 1349.16 177C1349.16 163 1354.16 148 1359.16 145C1365.16 142 1369.16 108 1369.16 69C1369.16 30 1373.16 0 1379.16 0C1385.16 0 1389.16 12 1390.16 28C1394.16 171 1409.16 320 1419.16 320C1433.16 320 1439.16 290 1439.16 223C1439.16 166 1442.16 154 1464.16 134C1478.16 121 1491.16 116 1495.16 121C1507.16 141 1528.16 94 1529.16 48C1529.16 7 1532.16 0 1548.16 0C1565.16 0 1568.16 10 1574.16 77C1583.16 188 1588.16 209 1610.16 220C1643.16 238 1651.16 266 1635.16 305C1627.16 324 1624.16 340 1629.16 340C1645.16 340 1679.16 373 1679.16 388C1679.16 395 1674.16 398 1667.16 394C1660.16 390 1659.16 391 1663.16 399C1667.16 405 1679.16 408 1690.16 405C1709.16 399 1718.16 409 1723.16 444C1726.16 469 1737.16 473 1754.16 457C1766.16 444 1767.16 437 1757.16 415C1748.16 396 1748.16 387 1757.16 378C1764.16 371 1769.16 335 1769.16 291C1769.16 250 1772.16 220 1776.16 224C1780.16 228 1782.16 249 1780.16 270C1779.16 294 1782.16 310 1788.16 310C1797.16 310 1806.16 118 1802.16 13C1801.16 6 1806.16 0 1813.16 0C1821.16 0 1824.16 71 1824.16 255C1824.16 445 1827.16 512 1837.16 522C1846.16 531 1849.16 528 1849.16 505C1850.16 442 1861.16 265 1864.16 261C1866.16 260 1872.16 261 1878.16 265C1885.16 269 1889.16 323 1889.16 411C1889.16 526 1892.16 552 1904.16 556C1912.16 560 1919.16 572 1919.16 585C1919.16 598 1926.16 611 1935.16 614C1957.16 623 1959.16 622 1959.16 605C1959.16 597 1964.16 590 1970.16 590C1978.16 590 1980.16 604 1976.16 634C1971.16 665 1974.16 681 1983.16 690C2002.16 705 2009.16 693 2018.16 617C2026.16 558 2027.16 561 2028.16 665C2029.16 743 2034.16 781 2044.16 794C2052.16 804 2056.16 817 2052.16 823C2049.16 828 2052.16 831 2060.16 828C2069.16 825 2075.16 805 2077.16 772C2079.16 735 2084.16 720 2095.16 720C2105.16 720 2109.16 732 2109.16 763C2109.16 807 2128.16 855 2130.16 815C2130.16 796 2131.16 796 2138.16 814C2153.16 854 2161.16 808 2159.16 692C2155.16 518 2158.16 420 2167.16 420C2171.16 420 2174.16 498 2175.16 593C2176.16 692 2181.16 776 2187.16 790C2197.16 813 2198.16 811 2198.16 768C2199.16 741 2204.16 720 2209.16 720C2215.16 720 2219.16 748 2219.16 783C2219.16 823 2224.16 853 2235.16 868C2275.16 925 2282.16 887 2289.16 595C2292.16 438 2298.16 346 2304.16 348C2310.16 349 2314.16 397 2314.16 463C2314.16 540 2318.16 582 2327.16 592C2336.16 604 2337.16 615 2329.16 635C2323.16 651 2320.16 710 2321.16 768C2323.16 856 2327.16 874 2340.16 877C2350.16 880 2359.16 896 2362.16 917C2370.16 963 2387.16 984 2405.16 969C2416.16 960 2420.16 962 2426.16 976C2455.16 1056 2492.16 1051 2482.16 969C2478.16 936 2480.16 920 2488.16 920C2495.16 920 2499.16 893 2499.16 841C2499.16 797 2504.16 758 2509.16 755C2515.16 751 2519.16 776 2519.16 822C2519.16 863 2523.16 900 2528.16 905C2534.16 911 2539.16 938 2541.16 965C2544.16 1011 2546.16 1015 2572.16 1018C2591.16 1020 2599.16 1017 2599.16 1006C2599.16 998 2608.16 989 2618.16 985C2639.16 979 2643.16 937 2655.16 602C2658.16 513 2664.16 440 2668.16 440C2673.16 440 2679.16 585 2683.16 762C2687.16 940 2693.16 1089 2696.16 1094C2705.16 1109 2729.16 1069 2729.16 1039C2729.16 1024 2735.16 1010 2742.16 1007C2751.16 1004 2754.16 964 2754.16 854C2754.16 658 2772.16 650 2781.16 842C2785.16 921 2788.16 1017 2789.16 1055C2789.16 1109 2792.16 1120 2799.16 1103C2814.16 1065 2829.16 1077 2829.16 1126C2829.16 1182 2848.16 1251 2863.16 1248C2879.16 1246 2926.16 1267 2934.16 1279C2937.16 1285 2933.16 1290 2924.16 1290C2912.16 1290 2909.16 1295 2913.16 1306C2916.16 1315 2919.16 1328 2919.16 1336C2919.16 1343 2934.16 1357 2952.16 1366C2969.16 1375 2987.16 1388 2991.16 1394C2995.16 1400 2999.16 1401 2999.16 1396C2999.16 1391 3010.16 1397 3024.16 1410C3038.16 1423 3049.16 1429 3049.16 1424C3049.16 1419 3059.16 1414 3071.16 1413C3101.16 1410 3109.16 1393 3109.16 1329C3109.16 1298 3114.16 1249 3119.16 1219C3127.16 1175 3126.16 1157 3112.16 1119C3096.16 1074 3096.16 1070 3114.16 1043C3130.16 1019 3133.16 995 3134.16 881C3134.16 800 3138.16 745 3144.16 743C3151.16 741 3155.16 873 3157.16 1125C3159.16 1434 3162.16 1518 3174.16 1546C3198.16 1604 3209.16 1587 3209.16 1490C3209.16 1417 3212.16 1400 3224.16 1400C3236.16 1400 3239.16 1416 3239.16 1488C3239.16 1575 3251.16 1632 3287.16 1712C3303.16 1748 3322.16 1764 3318.16 1738C3317.16 1731 3319.16 1717 3324.16 1706C3328.16 1696 3330.16 1622 3327.16 1541C3322.16 1386 3329.16 1301 3343.16 1333C3348.16 1343 3349.16 1363 3346.16 1378C3343.16 1393 3345.16 1502 3349.16 1620C3355.16 1800 3354.16 1837 3342.16 1846C3334.16 1853 3330.16 1867 3334.16 1881C3340.16 1909 3333.16 1923 3302.16 1938C3290.16 1945 3279.16 1960 3277.16 1972C3275.16 1984 3261.16 2001 3244.16 2010C3218.16 2024 3213.16 2033 3209.16 2081C3206.16 2111 3198.16 2144 3192.16 2156C3183.16 2172 3183.16 2188 3195.16 2228C3209.16 2275 3209.16 2285 3192.16 2342C3178.16 2388 3167.16 2407 3147.16 2419C3120.16 2434 3114.16 2447 3117.16 2480C3118.16 2488 3119.16 2512 3120.16 2533C3121.16 2554 3132.16 2584 3146.16 2603L3170.16 2635L3134.16 2663C3100.16 2692 3087.16 2731 3109.16 2745C3115.16 2748 3119.16 2771 3119.16 2795C3119.16 2826 3127.16 2850 3144.16 2876C3158.16 2896 3169.16 2916 3169.16 2920C3169.16 2941 3123.16 2981 3090.16 2990C3039.16 3003 3030.16 3016 3018.16 3088C3013.16 3122 2995.16 3200 2978.16 3262C2961.16 3324 2936.16 3418 2922.16 3470C2905.16 3532 2888.16 3573 2872.16 3589C2859.16 3603 2851.16 3620 2854.16 3628C2857.16 3636 2854.16 3640 2847.16 3638C2832.16 3633 2830.16 3614 2838.16 3565C2842.16 3543 2841.16 3510 2836.16 3491C2830.16 3469 2831.16 3415 2839.16 3345C2848.16 3250 2848.16 3223 2834.16 3165C2826.16 3128 2816.16 3093 2812.16 3086C2808.16 3080 2804.16 3068 2802.16 3060C2800.16 3042 2772.16 3021 2740.16 3013C2716.16 3007 2685.16 3033 2692.16 3053C2698.16 3072 2633.16 3124 2582.16 3142C2553.16 3152 2515.16 3158 2497.16 3156C2479.16 3153 2454.16 3151 2442.16 3151C2424.16 3150 2419.16 3144 2419.16 3125C2419.16 3111 2415.16 3100 2410.16 3100C2406.16 3100 2404.16 3089 2406.16 3076C2417.16 3020 2387.16 3047 2321.16 3153C2231.16 3295 2219.16 3325 2219.16 3403C2219.16 3480 2234.16 3515 2276.16 3535C2309.16 3551 2325.16 3567 2316.16 3577C2313.16 3579 2296.16 3571 2279.16 3558C2248.16 3535 2247.16 3535 2233.16 3554C2219.16 3574 2219.16 3574 2218.16 3554C2218.16 3536 2217.16 3536 2209.16 3555C2197.16 3582 2197.16 3602 2208.16 3596C2213.16 3593 2219.16 3596 2222.16 3604C2225.16 3611 2258.16 3625 2296.16 3634C2333.16 3644 2404.16 3670 2453.16 3692L2543.16 3733L2622.16 3723C2676.16 3715 2721.16 3702 2762.16 3681C2829.16 3647 2847.16 3646 2800.16 3680C2783.16 3692 2769.16 3708 2769.16 3716C2769.16 3724 2766.16 3730 2762.16 3730C2757.16 3730 2746.16 3748 2735.16 3769C2710.16 3821 2665.16 3864 2598.16 3899C2550.16 3923 2544.16 3931 2541.16 3961C2539.16 3980 2544.16 4009 2552.16 4025C2596.16 4114 2609.16 4150 2608.16 4186C2607.16 4223 2606.16 4222 2598.16 4172C2588.16 4114 2574.16 4080 2559.16 4080C2553.16 4080 2549.16 4088 2549.16 4098C2549.16 4108 2545.16 4120 2540.16 4126C2535.16 4131 2522.16 4162 2509.16 4195C2484.16 4263 2471.16 4283 2456.16 4273C2451.16 4270 2449.16 4272 2453.16 4278C2456.16 4284 2448.16 4297 2434.16 4308C2400.16 4335 2402.16 4352 2437.16 4344C2489.16 4333 2554.16 4294 2577.16 4260C2589.16 4242 2599.16 4231 2599.16 4236C2599.16 4269 2492.16 4356 2440.16 4366C2421.16 4370 2409.16 4379 2409.16 4389C2409.16 4403 2407.16 4403 2399.16 4390C2390.16 4377 2387.16 4378 2374.16 4395C2365.16 4406 2354.16 4433 2348.16 4455C2319.16 4567 2305.16 4611 2297.16 4616C2293.16 4619 2289.16 4626 2289.16 4631C2289.16 4648 2328.16 4615 2358.16 4574C2382.16 4539 2397.16 4503 2413.16 4435C2416.16 4424 2417.16 4442 2415.16 4476C2411.16 4546 2392.16 4588 2338.16 4647C2316.16 4671 2299.16 4694 2299.16 4700C2299.16 4706 2295.16 4709 2291.16 4706C2280.16 4700 2223.16 4757 2231.16 4765C2234.16 4769 2246.16 4760 2257.16 4746C2268.16 4731 2280.16 4720 2283.16 4720C2290.16 4720 2202.16 4837 2188.16 4846C2164.16 4861 2019.16 5114 2019.16 5142C2019.16 5148 2012.16 5161 2003.16 5171C1995.16 5180 1986.16 5197 1985.16 5207C1983.16 5217 1976.16 5225 1969.16 5225C1962.16 5225 1954.16 5231 1951.16 5239C1948.16 5248 1951.16 5250 1959.16 5245C1967.16 5240 1970.16 5242 1967.16 5251C1964.16 5259 1956.16 5264 1950.16 5262C1943.16 5261 1941.16 5264 1944.16 5271C1953.16 5284 1911.16 5329 1840.16 5384C1688.16 5500 1673.16 5509 1619.16 5520C1589.16 5526 1545.16 5535 1521.16 5540C1447.16 5557 1388.16 5552 1340.16 5524ZM1417.16 4939C1438.16 4926 1489.16 4846 1489.16 4827C1489.16 4820 1501.16 4790 1516.16 4760L1543.16 4706L1516.16 4686C1501.16 4674 1455.16 4647 1413.16 4625C1316.16 4575 1310.16 4565 1340.16 4518C1362.16 4484 1367.16 4482 1402.16 4487C1430.16 4491 1445.16 4488 1459.16 4475C1487.16 4449 1562.16 4461 1617.16 4500C1663.16 4532 1679.16 4536 1710.16 4520C1735.16 4506 1734.16 4490 1703.16 4433C1626.16 4293 1626.16 4294 1670.16 4215C1695.16 4170 1700.16 4153 1695.16 4125C1688.16 4092 1670.16 4076 1668.16 4103C1666.16 4121 1648.16 4050 1645.16 4015C1642.16 3971 1624.16 3945 1585.16 3926C1547.16 3908 1508.16 3912 1487.16 3937C1477.16 3950 1479.16 3956 1498.16 3971C1511.16 3982 1531.16 3990 1543.16 3990C1556.16 3990 1576.16 4001 1589.16 4015L1613.16 4041L1591.16 4047C1565.16 4053 1562.16 4072 1584.16 4090C1597.16 4101 1604.16 4099 1624.16 4080L1649.16 4057L1649.16 4082C1649.16 4111 1629.16 4131 1602.16 4131C1504.16 4127 1430.16 4121 1412.16 4115C1394.16 4109 1389.16 4112 1389.16 4124C1389.16 4135 1396.16 4140 1407.16 4138C1420.16 4136 1423.16 4141 1421.16 4157C1419.16 4173 1425.16 4183 1443.16 4192C1458.16 4198 1469.16 4211 1469.16 4223C1469.16 4240 1464.16 4241 1432.16 4236C1411.16 4232 1381.16 4228 1365.16 4227L1336.16 4225L1317.16 4345C1307.16 4411 1296.16 4482 1292.16 4503C1287.16 4536 1280.16 4545 1243.16 4563C1219.16 4574 1199.16 4588 1199.16 4592C1199.16 4596 1192.16 4600 1183.16 4600C1170.16 4600 1168.16 4606 1175.16 4628C1179.16 4643 1183.16 4702 1185.16 4759C1186.16 4816 1191.16 4866 1196.16 4870C1200.16 4875 1227.16 4897 1254.16 4920C1300.16 4957 1308.16 4960 1351.16 4956C1376.16 4953 1406.16 4946 1417.16 4939ZM756.163 4888C754.163 4875 752.163 4883 752.163 4905C751.163 4927 753.163 4937 756.163 4928C758.163 4918 758.163 4900 756.163 4888ZM2201.16 4803C2211.16 4794 2219.16 4780 2219.16 4772C2219.16 4760 2213.16 4762 2194.16 4780C2156.16 4815 2163.16 4838 2201.16 4803ZM1529.16 4534C1529.16 4532 1522.16 4530 1514.16 4530C1506.16 4530 1499.16 4534 1499.16 4540C1499.16 4545 1506.16 4547 1514.16 4544C1522.16 4540 1529.16 4536 1529.16 4534ZM620.163 4192C615.163 4182 602.163 4167 593.163 4159C577.163 4147 576.163 4147 584.163 4160C594.163 4178 621.163 4210 626.163 4210C628.163 4210 625.163 4202 620.163 4192ZM2472.16 4128C2487.16 4105 2499.16 4077 2499.16 4066C2499.16 4051 2493.16 4057 2478.16 4085C2466.16 4107 2448.16 4137 2437.16 4152C2425.16 4170 2423.16 4178 2431.16 4175C2439.16 4172 2457.16 4151 2472.16 4128ZM563.163 3961C557.163 3922 519.163 3840 507.163 3840C485.163 3840 516.163 4035 546.163 4083C557.163 4100 570.163 4003 563.163 3961ZM636.163 4048C633.163 4040 630.163 4043 630.163 4054C629.163 4065 632.163 4071 635.163 4067C638.163 4064 639.163 4055 636.163 4048ZM2677.16 3820C2689.16 3808 2699.16 3794 2699.16 3788C2699.16 3781 2686.16 3789 2669.16 3805C2653.16 3821 2639.16 3835 2639.16 3837C2639.16 3846 2658.16 3838 2677.16 3820ZM642.163 3695C635.163 3674 629.163 3676 629.163 3701C629.163 3712 633.163 3719 639.163 3715C644.163 3712 646.163 3703 642.163 3695ZM400.163 3528C372.163 3499 352.163 3473 355.163 3470C358.163 3467 369.163 3475 379.163 3488C389.163 3500 400.163 3510 405.163 3510C409.163 3510 418.163 3518 425.163 3528C437.163 3543 438.163 3542 439.163 3513C439.163 3496 435.163 3479 430.163 3476C426.163 3473 412.163 3443 400.163 3410C388.163 3377 373.163 3350 366.163 3350C359.163 3350 346.163 3336 337.163 3320C328.163 3303 316.163 3290 311.163 3290C297.163 3290 288.163 3381 298.163 3415C319.163 3487 373.163 3577 418.163 3616L444.163 3639L447.163 3610C450.163 3586 440.163 3570 400.163 3528ZM579.163 3631C579.163 3626 572.163 3617 564.163 3610C548.163 3596 546.163 3600 555.163 3624C561.163 3641 579.163 3646 579.163 3631ZM599.163 3591C599.163 3566 585.163 3520 578.163 3520C563.163 3520 556.163 3570 569.163 3585C583.163 3602 599.163 3605 599.163 3591ZM2156.16 3528C2153.16 3520 2150.16 3523 2150.16 3534C2149.16 3545 2152.16 3551 2155.16 3547C2158.16 3544 2159.16 3535 2156.16 3528ZM536.163 3458C532.163 3445 523.163 3426 515.163 3415C502.163 3397 501.163 3400 505.163 3455C508.163 3488 513.163 3522 516.163 3530C525.163 3553 543.163 3486 536.163 3458ZM1835.16 3443C1825.16 3433 1816.16 3448 1825.16 3461C1831.16 3472 1833.16 3472 1837.16 3461C1839.16 3454 1838.16 3446 1835.16 3443ZM1889.16 3451C1889.16 3441 1859.16 3427 1852.16 3434C1849.16 3437 1850.16 3443 1854.16 3449C1862.16 3462 1889.16 3464 1889.16 3451ZM1639.16 3370C1639.16 3359 1635.16 3350 1630.16 3350C1619.16 3350 1608.16 3376 1616.16 3384C1628.16 3396 1639.16 3389 1639.16 3370ZM2019.16 3334C2019.16 3332 2008.16 3309 1995.16 3282C1981.16 3256 1968.16 3222 1964.16 3206C1961.16 3191 1955.16 3180 1952.16 3184C1949.16 3187 1933.16 3162 1917.16 3128C1883.16 3057 1885.16 3010 1923.16 2985C1935.16 2977 1952.16 2958 1960.16 2942C1967.16 2927 1986.16 2901 2001.16 2883C2033.16 2844 2045.16 2862 2016.16 2904C1992.16 2938 1980.16 3043 1998.16 3054C2004.16 3058 2009.16 3071 2009.16 3083C2009.16 3095 2014.16 3112 2020.16 3120C2028.16 3131 2029.16 3127 2024.16 3104C2020.16 3085 2025.16 3058 2036.16 3032L2054.16 2990L2054.16 3072C2054.16 3138 2059.16 3166 2077.16 3207C2103.16 3264 2127.16 3281 2143.16 3253C2148.16 3244 2186.16 3204 2227.16 3165C2268.16 3127 2308.16 3082 2315.16 3065C2327.16 3038 2328.16 3037 2329.16 3058C2329.16 3091 2346.16 3076 2358.16 3033C2365.16 3009 2365.16 2991 2358.16 2978C2341.16 2947 2356.16 2895 2398.16 2842C2444.16 2784 2458.16 2750 2435.16 2750C2426.16 2750 2416.16 2750 2413.16 2751C2409.16 2751 2403.16 2747 2400.16 2742C2394.16 2733 2361.16 2726 2331.16 2729C2324.16 2730 2319.16 2740 2320.16 2753C2324.16 2796 2319.16 2831 2310.16 2825C2304.16 2822 2295.16 2828 2290.16 2837C2282.16 2851 2281.16 2845 2285.16 2812C2291.16 2776 2288.16 2765 2269.16 2745C2256.16 2732 2242.16 2723 2238.16 2726C2233.16 2729 2228.16 2721 2227.16 2708C2227.16 2695 2225.16 2679 2225.16 2671C2224.16 2651 2132.16 2597 2113.16 2604C2105.16 2607 2099.16 2618 2100.16 2627C2103.16 2657 2099.16 2670 2089.16 2670C2084.16 2670 2079.16 2659 2079.16 2645C2079.16 2625 2074.16 2620 2054.16 2620C2038.16 2620 2029.16 2614 2029.16 2604C2029.16 2592 2023.16 2589 2005.16 2594C1976.16 2601 1970.16 2589 1977.16 2543C1981.16 2517 1978.16 2510 1965.16 2510C1956.16 2510 1949.16 2504 1949.16 2498C1949.16 2488 1946.16 2489 1940.16 2499C1935.16 2506 1927.16 2510 1921.16 2506C1916.16 2503 1906.16 2507 1899.16 2515C1879.16 2539 1858.16 2534 1865.16 2506C1868.16 2492 1866.16 2479 1858.16 2475C1851.16 2470 1848.16 2471 1852.16 2477C1856.16 2483 1848.16 2490 1836.16 2494C1821.16 2497 1802.16 2518 1786.16 2549C1736.16 2639 1753.16 2746 1844.16 2927C1856.16 2951 1857.16 2963 1849.16 2982C1837.16 3007 1792.16 3033 1777.16 3023C1771.16 3020 1770.16 3026 1774.16 3040C1780.16 3059 1778.16 3062 1765.16 3057C1742.16 3048 1745.16 3058 1772.16 3082C1784.16 3093 1788.16 3099 1782.16 3095C1762.16 3085 1766.16 3098 1805.16 3161C1851.16 3237 1918.16 3322 1927.16 3316C1931.16 3314 1945.16 3320 1958.16 3329C1978.16 3344 2019.16 3347 2019.16 3334ZM462.163 3308C444.163 3290 426.163 3280 422.163 3284C414.163 3292 467.163 3340 484.163 3340C489.163 3340 479.163 3326 462.163 3308ZM1857.16 3310C1841.16 3286 1826.16 3295 1839.16 3321C1845.16 3332 1854.16 3338 1859.16 3335C1865.16 3331 1864.16 3321 1857.16 3310ZM2208.16 3274C2220.16 3255 2225.16 3242 2219.16 3245C2201.16 3256 2208.16 3241 2244.16 3194C2283.16 3143 2292.16 3112 2256.16 3151C2216.16 3194 2159.16 3271 2159.16 3283C2159.16 3289 2171.16 3283 2186.16 3269C2206.16 3252 2209.16 3251 2196.16 3266C2181.16 3285 2173.16 3310 2183.16 3310C2185.16 3310 2196.16 3294 2208.16 3274ZM669.163 3263C669.163 3241 652.163 3214 644.163 3222C636.163 3230 649.163 3280 660.163 3280C665.163 3280 669.163 3272 669.163 3263ZM1829.16 3276C1829.16 3273 1825.16 3268 1819.16 3265C1814.16 3262 1809.16 3264 1809.16 3269C1809.16 3275 1814.16 3280 1819.16 3280C1825.16 3280 1829.16 3278 1829.16 3276ZM2019.16 3259C2012.16 3248 2005.16 3241 2002.16 3244C1999.16 3247 2002.16 3256 2009.16 3265C2027.16 3286 2032.16 3284 2019.16 3259ZM683.163 3116C680.163 3107 673.163 3100 668.163 3100C662.163 3100 663.163 3109 669.163 3121C682.163 3145 693.163 3141 683.163 3116ZM1508.16 2997C1514.16 2989 1518.16 2956 1516.16 2919C1513.16 2868 1518.16 2844 1537.16 2800C1567.16 2733 1593.16 2616 1585.16 2584C1582.16 2572 1586.16 2530 1594.16 2492C1606.16 2432 1606.16 2405 1595.16 2294C1587.16 2223 1578.16 2157 1574.16 2147C1562.16 2118 1535.16 2132 1527.16 2170C1523.16 2189 1516.16 2225 1510.16 2250C1502.16 2287 1504.16 2308 1521.16 2368C1540.16 2431 1540.16 2443 1528.16 2455C1515.16 2468 1508.16 2464 1471.16 2429C1425.16 2386 1353.16 2350 1313.16 2350C1289.16 2350 1281.16 2364 1299.16 2375C1305.16 2379 1307.16 2386 1303.16 2391C1300.16 2396 1293.16 2397 1287.16 2394C1280.16 2390 1279.16 2392 1283.16 2399C1287.16 2405 1283.16 2413 1274.16 2416C1264.16 2420 1260.16 2430 1264.16 2444C1269.16 2465 1269.16 2464 1253.16 2443C1232.16 2414 1216.16 2413 1224.16 2441C1230.16 2458 1227.16 2461 1207.16 2459C1180.16 2455 1156.16 2467 1164.16 2481C1168.16 2486 1166.16 2490 1162.16 2490C1157.16 2490 1152.16 2504 1151.16 2521C1150.16 2537 1148.16 2554 1148.16 2558C1145.16 2580 1151.16 2590 1169.16 2590C1185.16 2590 1188.16 2595 1183.16 2614C1179.16 2631 1184.16 2644 1199.16 2658L1221.16 2678L1186.16 2675C1167.16 2673 1138.16 2665 1121.16 2656C1088.16 2639 1066.16 2651 1096.16 2669C1111.16 2678 1112.16 2681 1099.16 2689C1073.16 2706 1311.16 2925 1396.16 2962C1411.16 2969 1435.16 2982 1448.16 2992C1476.16 3013 1493.16 3015 1508.16 2997ZM1646.16 2915C1649.16 2906 1644.16 2893 1633.16 2885C1617.16 2873 1612.16 2873 1600.16 2885C1588.16 2896 1588.16 2902 1599.16 2914C1615.16 2934 1638.16 2934 1646.16 2915ZM593.163 2855C589.163 2847 585.163 2840 583.163 2840C581.163 2840 579.163 2847 579.163 2855C579.163 2863 583.163 2870 589.163 2870C594.163 2870 596.163 2863 593.163 2855ZM523.163 2774C529.163 2752 520.163 2733 479.163 2674C451.163 2633 431.163 2600 434.163 2600C436.163 2600 454.163 2617 474.163 2638C498.163 2663 509.163 2670 509.163 2659C509.163 2628 415.163 2530 385.163 2530C372.163 2530 381.163 2637 397.163 2667C417.163 2703 498.163 2800 509.163 2800C514.163 2800 520.163 2788 523.163 2774ZM646.163 2758C643.163 2750 640.163 2753 640.163 2764C639.163 2775 642.163 2781 645.163 2777C648.163 2774 649.163 2765 646.163 2758ZM684.163 2678C675.163 2640 654.163 2614 643.163 2631C640.163 2637 640.163 2645 645.163 2649C650.163 2652 660.163 2667 668.163 2683C687.163 2719 692.163 2717 684.163 2678ZM654.163 2561C655.163 2538 653.163 2520 649.163 2520C638.163 2520 619.163 2577 619.163 2609C619.163 2632 620.163 2633 635.163 2618C644.163 2609 653.163 2583 654.163 2561ZM618.163 2466C605.163 2452 571.163 2487 564.163 2521C553.163 2572 570.163 2574 599.163 2523C616.163 2495 624.163 2471 618.163 2466ZM759.163 2373C759.163 2361 755.163 2348 749.163 2345C737.163 2337 725.163 2385 733.163 2407C739.163 2422 741.163 2422 749.163 2410C755.163 2402 759.163 2385 759.163 2373ZM708.163 2245L718.163 2205L699.163 2229C688.163 2242 679.163 2264 679.163 2278C679.163 2313 694.163 2295 708.163 2245ZM879.163 2108C879.163 2074 863.163 2071 855.163 2104C847.163 2136 858.163 2168 870.163 2148C875.163 2141 879.163 2123 879.163 2108ZM825.163 2079C843.163 2044 839.163 2010 813.163 1954C791.163 1908 779.163 1911 779.163 1965C779.163 2008 797.163 2110 805.163 2110C807.163 2110 816.163 2096 825.163 2079ZM949.163 1014C949.163 1006 945.163 1000 939.163 1000C934.163 1000 929.163 1002 929.163 1004C929.163 1006 926.163 1016 923.163 1024C918.163 1036 921.163 1039 933.163 1034C942.163 1031 949.163 1022 949.163 1014ZM1183.16 698C1180.16 694 1174.16 690 1168.16 690C1163.16 690 1159.16 694 1159.16 698C1159.16 703 1166.16 707 1174.16 707C1182.16 707 1186.16 703 1183.16 698Z" sodipodi:nodetypes="ccccccccccccccccccccccccccccccccccccccccccccccccccccccccccccccccccccccccccccccccccccccccccccccccccccccccccccccccccccccccccccccccccccccccccccccccccccccccccccccccccccccccccccccccccccccccccccccccccccccccccccccccccccccccccccccccccccccccccccccccccccccccccccccccccccccccccccccccccccccccccccccccccccccccccccccccccccccccccccccccccccccccccccccccccccccccccccccccccccccccccccccccccccccccccccccccccccccccccccccccccccccccccccccccccccccccccccccccccccccccccccccccccccccccccccccccccccccccccccccccccccccccccccccccccccccccccccccccccccccccccccccccccccccccccccccccccccccccccccccccccccccccccccccccccccccccccccccccccccccccccccccccccccccccccccccccccccccccccccccccccccccccccccccccccccccccccccccccccccccccccccccccccccccccccccccccccccccccccccccccccccccccccccccccccccccccccccccccccccccc"/><path id="shape1" transform="matrix(0.1 0 0 -0.1 127 310.640953996364)" fill="#d53734" stroke-opacity="0" stroke="#000000" stroke-width="0" stroke-linecap="square" stroke-linejoin="bevel" d="M0 5.40954C0 0.40954 5 -1.59046 10 1.40954C16 4.40954 20 9.40954 20 12.4095C20 14.4095 16 16.4095 10 16.4095C5 16.4095 0 11.4095 0 5.40954Z" sodipodi:nodetypes="ccccc"/><path id="shape2" transform="matrix(0.1 0 0 -0.1 234.455754204778 241.699999999999)" fill="#d53734" stroke-opacity="0" stroke="#000000" stroke-width="0" stroke-linecap="square" stroke-linejoin="bevel" d="M85.4425 429C12.4425 395 -14.5575 339 7.44246 266C19.4425 225 82.4425 152 134.442 119C148.442 110 177.442 86 198.442 67C219.442 48 246.442 27 257.442 21C271.442 14 274.442 8 266.442 4C258.442 0 259.442 -1 267.442 1C281.442 4 283.442 13 291.442 99C296.442 147 293.442 164 271.442 208C256.442 236 232.442 269 217.442 281C149.442 334 142.442 344 136.442 388C130.442 432 116.442 443 85.4425 429Z" sodipodi:nodetypes="cccccccccccc"/><path id="shape3" transform="matrix(0.1 0 0 -0.1 62.2 347.133036213997)" fill="#d53734" stroke-opacity="0" stroke="#000000" stroke-width="0" stroke-linecap="square" stroke-linejoin="bevel" d="M0 21.3304C0 2.33036 2 -5.66964 5 4.33036C7 13.3304 7 29.3304 5 39.3304C2 48.3304 0 40.3304 0 21.3304Z" sodipodi:nodetypes="cccc"/><path id="shape4" transform="matrix(0.1 0 0 -0.1 43.2 357.188888888888)" fill="#d53734" stroke-opacity="0" stroke="#000000" stroke-width="0" stroke-linecap="square" stroke-linejoin="bevel" d="M0 16.8889C0 0.888889 2 -5.11111 5 4.88889C7 13.8889 7 27.8889 5 34.8889C2 40.8889 0 33.8889 0 16.8889Z" sodipodi:nodetypes="cccc"/><path id="shape5" transform="matrix(0.1 0 0 -0.1 297 424.599604729188)" fill="#d53734" stroke-opacity="0" stroke="#000000" stroke-width="0" stroke-linecap="square" stroke-linejoin="bevel" d="M0 9.99605C0 1.99605 5 -2.00395 10 0.996047C16 4.99605 18 11.996 15 16.996C6 30.996 0 27.996 0 9.99605Z" sodipodi:nodetypes="cccc"/><path id="shape6" transform="matrix(0.1 0 0 -0.1 116.225566683794 498.997411061682)" fill="#d53734" stroke-opacity="0" stroke="#000000" stroke-width="0" stroke-linecap="square" stroke-linejoin="bevel" d="M3.74433 20.9741C-0.255667 13.9741 -1.25567 5.97411 1.74433 2.97411C10.7443 -6.02589 20.7443 6.97411 15.7443 20.9741C11.7443 31.9741 9.74433 31.9741 3.74433 20.9741Z" sodipodi:nodetypes="cccc"/>
</svg>
